<svg xmlns="http://www.w3.org/2000/svg" width="76" height="25" viewBox="0 0 76 25">
  <g id="Group_11" data-name="Group 11" transform="translate(-139.71 -19)">
    <text id="BSFarm" transform="translate(139.71 39)" fill="#fffcfc" font-size="18" font-family="Montserrat-BoldItalic, Montserrat" font-weight="700" font-style="italic"><tspan x="0" y="0">BSFarm</tspan></text>
    <path id="Union_1" data-name="Union 1" d="M4.743,8.412A1.526,1.526,0,0,1,4.5,8.394a5.44,5.44,0,0,1-3.08-2.1C.014,4.565-.42,2.592.445,1.891.96,1.474,1.82,1.6,2.726,2.135,3.06.871,3.76,0,4.569,0c.85,0,1.578.959,1.889,2.327,1.014-.692,2.01-.9,2.582-.436.866.7.432,2.674-.971,4.406a5.445,5.445,0,0,1-3.08,2.1,1.521,1.521,0,0,1-.237.018Z" transform="translate(190.737 19)" fill="#fff"/>
  </g>
</svg>
